<?xml version="1.0" encoding="UTF-8"?>
<svg width="752pt" height="752pt" version="1.1" viewBox="0 0 752 752" xmlns="http://www.w3.org/2000/svg">
 <path d="m232.27 523c-3.6992-3.6992-9.6953-3.6992-13.395 0l-50.547 50.535c-3.6992 3.6992-3.6992 9.6953 0 13.398 1.8516 1.8516 4.2734 2.7734 6.6953 2.7734 2.4258 0 4.8438-0.92188 6.6953-2.7695l50.551-50.535c3.7031-3.707 3.7031-9.7031 0-13.402zm-42.797-5.4922c2.4258 0 4.8438-0.92188 6.6953-2.7734l21.66-21.66c3.6992-3.6992 3.6992-9.6953 0-13.395s-9.6953-3.6992-13.395 0l-21.656 21.66c-3.6992 3.6992-3.6992 9.6953 0 13.395 1.8516 1.8477 4.2773 2.7734 6.6953 2.7734zm79.941 12.715-43.324 43.312c-3.6992 3.6992-3.6992 9.6953 0 13.398 1.8516 1.8516 4.2734 2.7734 6.6953 2.7734 2.4258 0 4.8438-0.92188 6.6953-2.7695l43.324-43.312c3.6992-3.6992 3.6992-9.6953 0-13.398-3.6953-3.7031-9.6914-3.6992-13.391-0.003906zm316.69-353.82-0.29297-4.6133c-0.29688-4.75-4.0781-8.543-8.832-8.8555l-4.5977-0.30469c-0.82422-0.058594-5.2852-0.33203-12.449-0.33203-33.992 0-119.05 5.9961-174.54 61.508-6.8203 6.8164-13.309 13.855-19.355 21.012-7.5352-3.6484-16.273-5.6016-25.355-5.6016-16.367 0-31.816 6.0664-42.379 16.645l-57.758 57.758c-6.5195 6.5039-4.5508 14.363-3.4844 18.582 0.1875 0.76562 0.39453 1.5469 0.54297 2.3477 0.89844 4.7969 3.2031 9.1562 6.6602 12.621 2.0781 2.0703 4.5312 3.7461 7.3633 5.0156l58.41 25.609c1.457 17.188 7.7695 31.777 18.445 42.473 10.785 10.789 25.555 17.113 42.98 18.484l25.957 59.176c1.1797 2.7617 2.8711 5.2578 5.043 7.4492 3.4609 3.4648 7.8281 5.7617 12.598 6.6406 1.4688 0.27344 2.9648 0.41016 4.4531 0.41016 6.4258 0 12.48-2.5 17.043-7.0508l58.352-58.359c17.32-17.312 20.746-43.73 9.4062-64.648 7.0977-6.0391 14.004-12.414 20.598-19.016 68.391-68.348 61.52-182.18 61.191-186.95zm-85.398 183.83 0.003906-0.019531-105.2 86.203-9.0625-20.668c-1.4922-3.4102-4.8398-5.625-8.5664-5.668-15.297-0.17578-27.41-4.6211-35.996-13.207-8.5117-8.5234-12.957-20.496-13.219-35.574-0.066406-3.6992-2.2773-7.0234-5.668-8.5117l-25.266-11.078 77.832-88.664c7.0547-8.8008 14.871-17.492 23.219-25.844 50.492-50.508 129.51-55.961 161.15-55.961 3.0703 0 5.582 0.058593 7.4492 0.11719 0.71094 19.91 0.73047 112.04-55.863 168.61-3.5039 3.5117-7.1484 6.9141-10.816 10.27zm-21.066-125.97c-9.3242 0-18.082 3.6211-24.66 10.195-1.7344 1.7383-3.2422 3.6172-4.5312 5.6016l-84.293 81.363c-4.7031 4.543-4.8359 12.039-0.29688 16.742 2.3242 2.4062 5.4219 3.6172 8.5195 3.6172 2.9609 0 5.9258-1.1016 8.2227-3.3203l65.949-63.66c1.625 3.2266 3.7617 6.25 6.4453 8.9414 1.8242 1.8242 3.8281 3.3945 5.9492 4.75l-73.25 59.652c-5.0703 4.1289-5.8359 11.582-1.7031 16.656 2.3398 2.875 5.75 4.3633 9.1875 4.3633 2.6289 0 5.2695-0.87109 7.4648-2.6602l96.09-78.242c1.9766-1.2969 3.8398-2.8008 5.5508-4.5078 0.23047-0.23047 0.42969-0.48828 0.66016-0.72266 0.3125-0.32031 0.62891-0.64453 0.89453-0.99609 11.973-13.676 11.484-34.539-1.5547-47.582-6.5781-6.5703-15.324-10.191-24.645-10.191zm-132.5 218.61c0-0.015625 0.003907-0.074219 0.003907-0.074219s-20.48-7.9297-30.938-18.383c-10.457-10.457-20.324-32.148-20.324-32.148s-0.027344 0.003907-0.03125 0.003907c-1.2227-3.6562-3.7969-6.7188-7.3359-8.4766-4.5664-2.2891-9.8867-2.0781-14.273 0.56641-5.5898 3.3867-10.773 7.4648-15.414 12.109-20.965 20.961-24.457 60.27-24.789 64.73-0.39062 5.5508 2.3477 10.801 7.1758 13.723 0.0625 0.03125 0.11719 0.070313 0.1875 0.10938-1.0039 2.4375-2.0312 4.6562-2.7656 6.1094-2.8906 5.7344-1.7656 12.617 2.7227 17.051 4.4961 4.5469 11.367 5.668 17.098 2.7891 1.3086-0.66016 3.5703-1.7148 6.1367-2.7734 0.027344 0.046874 0.046875 0.082031 0.066406 0.10547 2.625 4.5039 7.4922 7.3008 12.715 7.3008 0.40234 0 0.82031-0.019532 1.2188-0.058594v0.003906c12.496-0.53906 43.805-4.0352 64.559-24.789 4.9023-4.9023 9.1641-10.387 12.715-16.395 2.5469-4.418 2.6602-9.7422 0.33594-14.168-1.8594-3.6211-5.2031-6.2188-9.0625-7.3359z"/>
</svg>
