<?xml version="1.0"?><svg width="426.72858" height="746.25781" xmlns="http://www.w3.org/2000/svg">

 <metadata id="metadata1906">image/svg+xml</metadata>
 <g>
  <title>Layer 1</title>
  <g externalResourcesRequired="false" id="layer1">
   <g externalResourcesRequired="false" id="g3243">
    <path fill="#ececec" fill-rule="evenodd" stroke="#000000" stroke-width="10" id="path3217" d="m211.772186,5c-30.790497,24.505676 -267.457123,229.895859 -88.1875,623.21875l178.59375,0l0.65625,0c179.268799,-393.321045 -57.39621,-598.68074 -88.1875,-623.1875l-2.875,-0.03125z"/>
    <path fill="#cccccc" fill-rule="nonzero" stroke-width="8" stroke-linecap="round" stroke-miterlimit="4" d="m219.194427,259.648163c-37.293304,0 -67.624969,30.362946 -67.625,67.65625c0,37.293335 30.331696,67.625031 67.625,67.625031c37.293335,0 67.65625,-30.331696 67.65625,-67.625031c0,-37.293304 -30.362915,-67.65625 -67.65625,-67.65625zm0,8c32.964813,0 59.65625,26.691467 59.65625,59.65625c0,32.964813 -26.691437,59.625031 -59.65625,59.625031c-32.964813,0 -59.625,-26.660217 -59.625,-59.625031c0.000031,-32.964783 26.660187,-59.65625 59.625,-59.65625z" id="path3219"/>
    <path fill="#ff0000" fill-rule="evenodd" stroke="#000000" stroke-width="1px" d="m92.418854,166.481018l43.436554,-79.802048l60.609161,-68.690369l17.172577,-13.131973l64.64978,67.680222l50.507629,81.822342l4.040619,17.172607l-241.426483,-1.010162" id="path2419"/>
    <path fill="#ff0000" fill-rule="evenodd" stroke="#000000" stroke-width="10" d="m68.175201,470.536896c0,0 -107.076202,-1.333588 -42.426422,270.720917c0,0 6.060913,-227.159973 62.629456,-199.154358" id="path2408"/>
    <path fill="#ff0000" fill-rule="evenodd" stroke="#000000" stroke-width="10" id="path2410" d="m358.553436,470.536896c0,0 107.076172,-1.333588 42.426392,270.720917c0,0 -6.060913,-227.159973 -62.629456,-199.154358"/>
    <path fill="#b3b3b3" fill-rule="evenodd" stroke="#000000" stroke-width="1px" d="m97.469604,572.562317l26.263977,55.558472l179.807159,-1.010193l21.213196,-54.548279l-227.284332,0z" id="path2423"/>
    <path fill="#d20000" fill-rule="evenodd" stroke-width="1px" d="m383.342773,497.811066l-20.203033,50.50766l-12.121857,-10.101563l-14.14212,6.060913l19.192902,-75.761444l34.345184,17.172607c0,0 59.59903,41.41629 13.131989,247.487335c27.274109,-213.142151 -21.213196,-235.365509 -20.203064,-235.365509z" id="path3209"/>
    <path fill="#d20000" fill-rule="evenodd" stroke-width="1px" d="m22.718323,738.227356c0,0 -10.060913,-220.368713 58.588867,-221.223389c7.575562,-0.094299 7.071045,24.243652 7.071045,24.243652l-27.274109,6.060913l-21.213196,66.670105l-17.172607,124.248718z" id="path3213"/>
    <path fill="#999999" fill-rule="evenodd" stroke-width="1px" d="m258.874878,572.566956c4.052917,12.210205 6.448029,29.247681 5.28125,53.53125c0.862213,0.303772 1.775452,0.730042 2.71875,1.21875l36.65625,-0.21875l17.09375,-43.9375c-0.689545,-3.754211 -1.486267,-7.104736 -2.25,-10.59375l-59.5,0z" id="path3232"/>
    <path fill="#cccccc" fill-rule="evenodd" stroke-width="1px" d="m232.845215,465.920868c-6.818542,-0.505096 -11.125,0.562469 -11.125,0.562469l-5.0625,77.781311c0,0 24.335358,-4.805481 35.8125,28.3125l59.625,0c-19.365784,-90.308777 -59.66684,-105.205688 -79.25,-106.656281z" id="path3227"/>
    <path fill="#cccccc" fill-rule="evenodd" stroke-width="1px" d="m100.312378,577.085388l20,50l28,2l-8,-57l-40,5z" id="path3241"/>
    <path fill="#ffffff" fill-rule="evenodd" stroke="#000000" stroke-width="10" d="m211.772003,5c-30.790009,24.505699 -267.456902,229.895996 -88.187004,623.218994l178.59301,0l0.656982,0c179.268005,-393.320999 -57.396988,-598.680994 -88.187988,-623.187744l-2.875,-0.03125z" id="path2382"/>
    <path fill="none" fill-rule="evenodd" stroke="#000000" stroke-width="10" d="m92.418854,168.501343l237.385864,0" id="path2394"/>
    <path fill="#ffffff" fill-rule="nonzero" stroke="#000000" stroke-width="8" stroke-linecap="round" stroke-miterlimit="4" id="path2400" d="m276.849182,321.29834a63.63961,63.63961 0 1 1 -127.279221,0a63.63961,63.63961 0 1 1 127.279221,0z"/>
    <path fill="#80e5ff" fill-rule="nonzero" stroke="#000000" stroke-width="12.292683" stroke-linecap="round" stroke-miterlimit="4" d="m254.625824,321.29834a41.41626,41.41626 0 1 1 -82.832535,0a41.41626,41.41626 0 1 1 82.832535,0z" id="path2402"/>
    <path fill="none" fill-rule="evenodd" stroke="#000000" stroke-width="10" d="m100.500061,573.57251l224.253876,0" id="path2417"/>
    <path fill="#ffffff" fill-rule="nonzero" stroke="#000000" stroke-width="10" stroke-linecap="round" stroke-miterlimit="4" d="m204.118195,468.516632l18.18277,0l0,272.74118l-18.18277,0l0,-272.74118z" id="rect2414"/>
    <path fill="#ffffff" fill-rule="evenodd" stroke-width="1px" d="m314.652405,560.440552c0,0 80.812225,-185.868103 16.162445,-364.6651c3.030457,317.187927 -83.842651,364.6651 -83.842651,364.6651l67.680206,0z" id="path2425"/>
    <rect fill="#ffffff" fill-rule="nonzero" stroke-width="10" stroke-linecap="round" stroke-miterlimit="4" id="rect2429" width="34.470276" height="83.713531" x="360.056049" y="32.285821" transform="matrix(0.703894 0.710305 -0.703894 0.710305 0 0)"/>
    <path fill="#ffffff" fill-rule="nonzero" stroke="#000000" stroke-width="12.292683" stroke-linecap="round" stroke-miterlimit="4" id="path2431" d="m254.625824,321.29834a41.41626,41.41626 0 1 1 -82.832535,0a41.41626,41.41626 0 1 1 82.832535,0z"/>
    <path fill="#ffffff" fill-rule="evenodd" stroke-width="1px" d="m305.561035,153.349045c0,0 -31.314728,-81.822372 -90.913727,-125.258926c54.548248,105.055878 26.263977,125.258942 26.263977,125.258942l64.64975,-0.000015z" id="path2437"/>
    <path fill="#ffffff" fill-rule="evenodd" stroke="#000000" stroke-width="10" d="m358.553436,470.536896c0,0 107.076172,-1.333588 42.426392,270.720917c0,0 -6.060913,-227.159973 -62.629456,-199.154358" id="path3211"/>
    <path fill="#ffffff" fill-rule="evenodd" stroke="#000000" stroke-width="10" id="path3215" d="m68.175201,470.536896c0,0 -107.076202,-1.333588 -42.426422,270.720917c0,0 6.060913,-227.159973 62.629456,-199.154358"/>
    <path fill="#ffffff" fill-rule="evenodd" stroke-width="1px" d="m106.560974,150.318604c0,0 53.538086,-104.045715 97.984802,-131.319839c44.446716,-27.274124 -96.97464,133.340134 -97.984802,131.319839z" id="path3237"/>
    <path fill="#ffffff" fill-rule="evenodd" stroke-width="1px" d="m75.026672,426.799683c-3.163849,-1.756714 -22.724121,-145.960815 25.714264,-235.714294c29.866974,-24.039185 70.50235,-11.39679 68.571442,-1.428574c-16.726746,86.350754 -75.469482,247.590439 -94.285706,237.142868z" id="path3239"/>
   </g>
  </g>
 </g>
</svg>